/* XPM */
static char *freeimage[] = {
/* width height num_colors chars_per_pixel */
"16 16 49 1",
/* colors */
"  c #ffffff",
". c #f4f5f8",
"X c #696d98",
"o c #323772",
"O c #999cb9",
"+ c #5c608f",
"@ c #282e6c",
"# c #fef6ee",
"$ c #f9c688",
"% c #f8b86c",
"& c #f9c68a",
"* c #f6f6f9",
"= c #f5f2f1",
"- c #face9a",
"; c #f7b362",
": c #f7b567",
"> c #fad4a7",
", c #fce6cc",
"< c #a3a6c0",
"1 c #fdead5",
"2 c #f5992c",
"3 c #fdf2e5",
"4 c #fed468",
"5 c #fee7ac",
"6 c #eff0f4",
"7 c #9d9fbc",
"8 c #f59829",
"9 c #fef5ea",
"0 c #feedbf",
"q c #febf1c",
"w c #9699b7",
"e c #5d6290",
"r c #f8e8c0",
"t c #4e5386",
"y c #feecbb",
"u c #f3dfad",
"i c #f7e4b5",
"p c #fee9b4",
"a c #fec021",
"s c #fee092",
"d c #febe1a",
"f c #feefc7",
"g c #fecc4c",
"h c #fdf2e1",
"j c #febf1e",
"k c #f5982a",
"l c #f6a545",
"z c #fad09f",
"x c #fce5ca",
/* pixels */
"            .XoO",
"           .+@@o",
"          .+@@@X",
"         .+@@@+.",
"        .+@@@+. ",
"#$%%%%&*+@@@+=-#",
";:>>>>,<@@@+.1:;",
"2345  67@@+.5432",
"890q5 we7<*5q098",
"89 0qrtw6 5q0 98",
"89  yui  5qy  98",
"89 payqssqyap 98",
"89pdp fggf pdp98",
"8hjp        pjhk",
"lzh9999999999hzl",
"xlk8888888888klx"
};
