/* XPM */
static char *freeimage[] = {
/* width height num_colors chars_per_pixel */
"16 16 65 1",
/* colors */
"  c #ffffff",
". c #f7f0e5",
"X c #d2af81",
"o c #dcb985",
"O c #debc8a",
"+ c #d6b07e",
"@ c #decaaf",
"# c #d8b482",
"$ c #fce3a5",
"% c #f8ce71",
"& c #f6ce69",
"* c #f9d27b",
"= c #f1d7a4",
"- c #dabe98",
"; c #cca97d",
": c #fce097",
"> c #f3c760",
", c #bb945c",
"< c #f1c157",
"1 c #e6c38c",
"2 c #eee5d9",
"3 c #d9b377",
"4 c #f8d372",
"5 c #e1b15b",
"6 c #cdcac5",
"7 c #e0ac51",
"8 c #f1cf78",
"9 c #a99a89",
"0 c #daae60",
"q c #fde4a1",
"w c #cda46c",
"e c #f8cc66",
"r c #a79785",
"t c #d1a151",
"y c #fcdd8c",
"u c #f0cb6f",
"i c #f9d16e",
"p c #dcc5a8",
"a c #e7bf74",
"s c #f6d171",
"d c #f5d482",
"f c #e9cc98",
"g c #ecc564",
"h c #efca6d",
"j c #d09c48",
"k c #b2ada8",
"l c #e6bd5a",
"z c #cea253",
"x c #96826c",
"c c #a2917f",
"v c #cecece",
"b c #d8c0a3",
"n c #e8c892",
"m c #e8bc5f",
"M c #c9984d",
"N c #bcb8b4",
"B c #d19d46",
"V c #dcdcdc",
"C c #f4cd62",
"Z c #cf9a43",
"A c #f2d06f",
"S c #cd9741",
"D c #f2f1f0",
"F c #9a8570",
"G c #f6f6f5",
/* pixels */
"                ",
"        .XoO+@  ",
"       .#$%&*=- ",
"       ;:&>,,<12",
"       34&566789",
"       0q&&ww>er",
"       tyyui4e>r",
"      pasyqd4%t6",
"     pf8sg4shjk ",
"    pfuslzxxcv  ",
"   bnumjMN      ",
"  bnu&BvV       ",
" bnhCZc         ",
" 0ACScD         ",
" FxxcG          ",
"                "
};
