/* XPM */
static char *freeimage[] = {
/* width height num_colors chars_per_pixel */
"32 32 503 2",
/* colors */
"   c #ffffff",
" . c #fefdfb",
" X c #fcf9f6",
" o c #f7f1e8",
" O c #efe2d2",
" + c #ebdbc6",
" @ c #edddc6",
" # c #efdfc7",
" $ c #efe0c9",
" % c #efdfc8",
" & c #ecdcc7",
" * c #eee2d1",
" = c #f1e9dd",
" - c #f8f4ef",
" ; c #fcfbf8",
" : c #f9f4ec",
" > c #efe2cf",
" , c #dec4a2",
" < c #d6b589",
" 1 c #dbba8b",
" 2 c #debd8d",
" 3 c #dfbf8f",
" 4 c #debe8f",
" 5 c #dbb889",
" 6 c #d9b78b",
" 7 c #ddc3a1",
" 8 c #e2d1ba",
" 9 c #f1e9df",
" 0 c #fdfdfb",
" q c #f6efe4",
" w c #eedec8",
" e c #e8d2b0",
" r c #e5ca9a",
" t c #e5c48a",
" y c #e6c281",
" u c #e7c17c",
" i c #e6c27d",
" p c #e5c17e",
" a c #e5bf7d",
" s c #e4c082",
" d c #e5c898",
" f c #e6d1ae",
" g c #ebdac1",
" h c #f0e5d5",
" j c #f7f2eb",
" k c #fcfaf7",
" l c #efe2ce",
" z c #e1c7a1",
" x c #e2c28f",
" c c #f0d498",
" v c #f8db94",
" b c #f6d17f",
" n c #f4cb72",
" m c #f0ca71",
" M c #efca72",
" N c #f3cc77",
" B c #f5cf80",
" V c #f1d394",
" C c #edd4a4",
" Z c #e4cba2",
" A c #dfc7a7",
" S c #efe4d4",
" D c #f7f1ea",
" F c #ebddca",
" G c #e6d0ae",
" H c #e6c896",
" J c #eaca8b",
" K c #f3d48c",
" L c #f7d685",
" P c #f6cf74",
" I c #f1c769",
" U c #e4bc68",
" Y c #dbb568",
" T c #deb86c",
" R c #e2bc71",
" E c #eac67c",
" W c #efcd86",
" Q c #e6c68d",
" ! c #e0c398",
" ~ c #ecdcc5",
" ^ c #f8f4f0",
" / c #f1e7db",
" ( c #dac2a2",
" ) c #dbbc8c",
" _ c #eed091",
" ` c #f6d78c",
" ' c #f3d17d",
" ] c #f2cc71",
" [ c #f2c967",
" { c #eabf61",
" } c #d2a95f",
" | c #c19a5e",
".  c #c29b5f",
".. c #c8a05f",
".X c #deb360",
".o c #efc364",
".O c #e9c27a",
".+ c #e5c492",
".@ c #ead6b9",
".# c #f0e8dd",
".$ c #f0e6d6",
".% c #dabe96",
".& c #dcb97e",
".* c #f0cf85",
".= c #f8d782",
".- c #f4d074",
".; c #f0c969",
".: c #eec262",
".> c #e4ba64",
"., c #cfaf76",
".< c #c1a782",
".1 c #c6a97c",
".2 c #dab266",
".3 c #eaba59",
".4 c #eac170",
".5 c #e8c788",
".6 c #dec8a2",
".7 c #d4c9bb",
".8 c #f2e7d6",
".9 c #dfc194",
".0 c #e0bb77",
".q c #f0cc77",
".w c #f7d374",
".e c #f6cf6d",
".r c #f1c866",
".t c #e8bb60",
".y c #dfb66b",
".u c #d2bd97",
".i c #cac1b5",
".p c #cdbfa9",
".a c #d9b678",
".s c #e3b155",
".d c #e9c069",
".f c #ebca7c",
".g c #ceb789",
".h c #b3a595",
".j c #f3e7d3",
".k c #e1c18d",
".l c #e2bc74",
".z c #f1cf7d",
".x c #f8d57c",
".c c #f5d071",
".v c #f1c868",
".b c #ecbf62",
".n c #e3ba6b",
".m c #d6bc8f",
".M c #cdbda7",
".N c #d0bc9d",
".B c #dcb876",
".V c #e7b758",
".C c #edc366",
".Z c #eeca73",
".A c #cab17d",
".S c #a89987",
".D c #f3e6d0",
".F c #e1bf85",
".G c #e3bc72",
".H c #f3d48b",
".J c #f9db8e",
".K c #f4d179",
".L c #f1ca6b",
".P c #f2c867",
".I c #ecc168",
".U c #d9b474",
".Y c #cdaa7c",
".T c #d1ad78",
".R c #e1b869",
".E c #f0c35e",
".W c #f3c864",
".Q c #f1c96a",
".! c #cbaf78",
".~ c #a79785",
".^ c #f2e5cd",
"./ c #dfbc7e",
".( c #e1b96c",
".) c #fadd92",
"._ c #f6d581",
".` c #f4cf74",
".' c #f4cd6d",
".] c #f0c669",
".[ c #dab16c",
".{ c #dab26d",
".} c #ddb46c",
".| c #eabf66",
"X  c #f4c862",
"X. c #f5c963",
"XX c #f1c766",
"Xo c #cbae76",
"XO c #f1e3cb",
"X+ c #dcb778",
"X@ c #deb364",
"X# c #f2d081",
"X$ c #fbdd8d",
"X% c #fada88",
"X& c #f7d680",
"X* c #f1ca6d",
"X= c #f0c86d",
"X- c #efc76e",
"X; c #efc86f",
"X: c #efc96f",
"X> c #f3ca69",
"X, c #f6ca64",
"X< c #f5c962",
"X1 c #efc563",
"X2 c #caad74",
"X3 c #fbf9f7",
"X4 c #ecd9bc",
"X5 c #ddb878",
"X6 c #e0b666",
"X7 c #f1cd7a",
"X8 c #fada86",
"X9 c #fbdc89",
"X0 c #f4d17a",
"Xq c #f6d176",
"Xw c #f7d173",
"Xe c #f7d272",
"Xr c #f8d270",
"Xt c #f8cf6c",
"Xy c #f6cb67",
"Xu c #efc361",
"Xi c #e6bb5f",
"Xp c #caaf7b",
"Xa c #b1a496",
"Xs c #f6f0e9",
"Xd c #e9dbc9",
"Xf c #e3caa4",
"Xg c #e2bd7c",
"Xh c #e7bf6e",
"Xj c #f2cd74",
"Xk c #f8d67c",
"Xl c #f9dc90",
"Xz c #f6d37b",
"Xx c #f7d376",
"Xc c #f8d271",
"Xv c #f8cf6f",
"Xb c #f5ca6b",
"Xn c #e6b95f",
"Xm c #d7ab5a",
"XM c #cdb489",
"XN c #c3bdb5",
"XB c #f7f3ed",
"XV c #eee2d2",
"XC c #e3ceb0",
"XZ c #e2c595",
"XA c #e7c37e",
"XS c #ecc673",
"XD c #f2cd71",
"XF c #f6d275",
"XG c #f7d57d",
"XH c #f8d986",
"XJ c #fadd8f",
"XK c #fadd91",
"XL c #f7d785",
"XP c #f5d27b",
"XI c #f5d175",
"XU c #f4cf6f",
"XY c #f1c76a",
"XT c #d9b066",
"XR c #caa66c",
"XE c #d2bfa1",
"XW c #d9d6d3",
"XQ c #f5efe7",
"X! c #e5d1b3",
"X~ c #e5cca2",
"X^ c #e8ca91",
"X/ c #ecca7e",
"X( c #f0cc75",
"X) c #f4cf72",
"X_ c #f4cf70",
"X` c #f1cd6f",
"X' c #f2ce72",
"X] c #f6d379",
"X[ c #f8d67d",
"X{ c #f6d378",
"X} c #f5d174",
"X| c #f3ce71",
"o  c #eec86b",
"o. c #e3b75d",
"oX c #d7a958",
"oo c #c8a976",
"oO c #bdae96",
"o+ c #d8d0c4",
"o@ c #f1f0ef",
"o# c #eee1d1",
"o$ c #e2cdaf",
"o% c #e2c89d",
"o& c #e8ca93",
"o* c #eccc87",
"o= c #f0ce7b",
"o- c #f2ce73",
"o; c #f2cd6e",
"o: c #efc969",
"o> c #e9c163",
"o, c #e5be63",
"o< c #e3c06b",
"o1 c #e2c170",
"o2 c #e2c070",
"o3 c #e1bf70",
"o4 c #dfbe70",
"o5 c #dcbb6f",
"o6 c #d5af69",
"o7 c #cea86c",
"o8 c #c7b495",
"o9 c #c6c2be",
"o0 c #e3e1df",
"oq c #f4ede5",
"ow c #e7d8c6",
"oe c #e4cfb2",
"or c #eccb81",
"ot c #efcc78",
"oy c #f3cf74",
"ou c #f1cc6e",
"oi c #edc665",
"op c #e6bd5e",
"oa c #dcb25a",
"os c #cfa85c",
"od c #bea067",
"of c #b39a6d",
"og c #b49b6f",
"oh c #b79f75",
"oj c #bba57e",
"ok c #c6b394",
"ol c #d0c2ab",
"oz c #ddd5c9",
"ox c #e9e7e6",
"oc c #f4f3f3",
"ov c #fbfaf7",
"ob c #ecdfcf",
"on c #dec7a9",
"om c #e0c59a",
"oM c #e7ca92",
"oN c #ebca84",
"oB c #edc872",
"oV c #efc769",
"oC c #ebc264",
"oZ c #e4ba5b",
"oA c #dbb25a",
"oS c #d0aa61",
"oD c #c3a36b",
"oF c #b39c7c",
"oG c #a99886",
"oH c #aa9a89",
"oJ c #afa090",
"oK c #b7ab9e",
"oL c #c8c3bd",
"oP c #dadada",
"oI c #ededed",
"oU c #f3ede4",
"oY c #e7d8c7",
"oT c #e4ceb1",
"oR c #e2c79c",
"oE c #e6c78d",
"oW c #ecca80",
"oQ c #ecc774",
"o! c #ebc268",
"o~ c #e0b257",
"o^ c #daab53",
"o/ c #d5a652",
"o( c #cea761",
"o) c #c6ad81",
"o_ c #c7b8a0",
"o` c #d4cabc",
"o' c #dbd5cd",
"o] c #dcd6ce",
"o[ c #ded8d2",
"o{ c #e1dcd7",
"o} c #e8e6e4",
"o| c #f0f0f0",
"O  c #f8f8f8",
"O. c #fcfaf8",
"OX c #f9f6f1",
"Oo c #ecdfce",
"OO c #ddc5a7",
"O+ c #e0c498",
"O@ c #e7c78f",
"O# c #ebc981",
"O$ c #ecc468",
"O% c #e6ba5e",
"O& c #deb15b",
"O* c #d4a85a",
"O= c #cfa35c",
"O- c #cda260",
"O; c #caaa79",
"O: c #c7b9a6",
"O> c #d2cfcc",
"O, c #edeceb",
"O< c #f3ece4",
"O1 c #e7d9c8",
"O2 c #e4cfb1",
"O3 c #e2c69c",
"O4 c #e6c68c",
"O5 c #ebc97f",
"O6 c #eeca77",
"O7 c #efca70",
"O8 c #e8bf64",
"O9 c #ddae54",
"O0 c #d6ae66",
"Oq c #d1b78c",
"Ow c #d0be9f",
"Oe c #d3c1a5",
"Or c #d9cbb6",
"Ot c #e1dbd3",
"Oy c #ebeae9",
"Ou c #f7f7f6",
"Oi c #fcfbf9",
"Op c #faf7f4",
"Oa c #ebdece",
"Os c #dbc4a5",
"Od c #ebc980",
"Of c #efca71",
"Og c #eec86c",
"Oh c #ecc56a",
"Oj c #e1b760",
"Ok c #d1a352",
"Ol c #cdac75",
"Oz c #d2c7b7",
"Ox c #d7d7d7",
"Oc c #dddddd",
"Ov c #e7e7e7",
"Ob c #f6f6f6",
"On c #f3ece3",
"Om c #e8d9c8",
"OM c #e2c69b",
"ON c #ebc87e",
"OB c #f1cb69",
"OV c #eac060",
"OC c #dfb157",
"OZ c #cea55b",
"OA c #bb9a64",
"OS c #c5af90",
"OD c #dfd9cf",
"OF c #efefef",
"OG c #f4f4f4",
"OH c #fbfbfb",
"OJ c #d9c09f",
"OK c #dfc396",
"OL c #e7c88f",
"OP c #eeca6f",
"OI c #efc966",
"OU c #f0c860",
"OY c #e2b756",
"OT c #d0a04b",
"OR c #bf995e",
"OE c #af9a7d",
"OW c #c3b8ad",
"OQ c #ece9e6",
"O! c #ecdbbf",
"O~ c #dab780",
"O^ c #e2c07d",
"O/ c #eccb7d",
"O( c #efcc74",
"O) c #f1cb68",
"O_ c #e9bf5d",
"O` c #e0b151",
"O' c #cea457",
"O] c #bb9862",
"O[ c #bea684",
"O{ c #cdc1b1",
"O} c #dfdad5",
"O| c #f5f4f2",
"+  c #ebd6b2",
"+. c #d7ae65",
"+X c #e0b967",
"+o c #ebc96d",
"+O c #edca69",
"++ c #eec863",
"+@ c #e0b456",
"+# c #ce9c48",
"+$ c #bd965c",
"+% c #ac977c",
"+& c #c1b6ab",
"+* c #e8e5e1",
"+= c #f9f9f8",
"+- c #fdfdfd",
"+; c #dcccb6",
"+: c #b99a6d",
"+> c #bb9d6a",
"+, c #bfa46d",
"+< c #c0a46a",
"+1 c #c0a467",
"+2 c #bc9d65",
"+3 c #b69563",
"+4 c #bfa684",
"+5 c #cbc0b1",
"+6 c #ded9d3",
"+7 c #f3f1ef",
"+8 c #fcfcfb",
"+9 c #fefefe",
"+0 c #cfc5bb",
"+q c #a08c78",
"+w c #9b8772",
"+e c #998570",
"+r c #9d8b77",
"+t c #a39280",
"+y c #c2b7ac",
"+u c #e9e7e3",
"+i c #e7e2dd",
"+p c #cdc3b8",
"+a c #ccc2b7",
"+s c #cec5bb",
"+d c #d1c8bf",
"+f c #e0dbd5",
"+g c #f4f3f1",
/* pixels */
"                                                                ",
"                               . X o O + @ # $ % @ & * = -      ",
"                               ; : > , < 1 2 3 4 5 6 7 8 9      ",
"                           0 X q w e r t y u i p a s d f g h j  ",
"                           k : l z x c v b n m M N B V C Z A S  ",
"                           D F G H J K L P I U Y T R E W Q ! ~ ^",
"                           / ( ) _ ` ' ] [ { } |. ...X.o.O.+.@.#",
"                          .$.%.&.*.=.-.;.:.>.,.<.<.1.2.3.4.5.6.7",
"                          .8.9.0.q.w.e.r.t.y.u.i.i.p.a.s.d.f.g.h",
"                          .j.k.l.z.x.c.v.b.n.m.M.M.N.B.V.C.Z.A.S",
"                          .D.F.G.H.J.K.L.P.I.U.Y.Y.T.R.E.W.Q.!.~",
"                          .^./.(.H.)._.`.'.].n.[.{.}.|X X.XXXo.~",
"                          XOX+X@X#X$X%X&.`X*X=X-X;X:X>X,X<X1X2.~",
"                      X3 jX4X5X6X7X8X9X%._X0XqXwXeXrXtXyXuXiXpXa",
"                      XsXdXfXgXhXjXkX8X$.)Xl LXzXxXcXvXbXnXmXMXN",
"                  X3XBXVXCXZXAXSXDXFXGXHXJXKXLXPXIXUXY.|XTXRXEXW",
"                  XQXdX!X~X^X/X(X)X_X`X'X]X[X{X}X|o o.oXoooOo+o@",
"              X3XBo#o$o%o&o*o=o-o;o:o>o,o<o1o2o3o4o5o6o7o8o9o0  ",
"              oqowoe ZX^orotoyouoiopoaosodofofogohojokolozoxoc  ",
"          ov -obonomoMoNoBo oVoCoZoAoSoDoFoGoGoHoJoKoLoPoI      ",
"          oUoYoToRoEoWoQo!Xio~o^o/o(o)o_o`o'o'o]o[o{o}o|O       ",
"      O.OXOoOOO+O@O#.ZO$O%O&O*O=O-O;O:O>O,                      ",
"      O<O1O2O3O4O5O6O7O8O9O0OqOwOeOrOtOyOu                      ",
"  OiOpOaOsO+O@OdOfOgOhOjOkOlOzOxOcOvOb                          ",
"  OnOmoeOMO4ON.ZOBOVOCOZOAOSODoIOFOGOH                          ",
"  obOJOKOLOdOPOIOUOYOTOROEOWOQ                                  ",
"  O!O~O^O/O(O)O_O`O'O]O[O{O}O|                                  ",
"  + +.+X+o+O+++@+#+$+%+&+*+=+-                                  ",
"  +;+:+>+,+<+1+2+3+4+5+6+7+8+9                                  ",
"  +0+q+w+e+e+e+r+t+y+u+=+-                                      ",
"  +i+0+p+a+a+a+s+d+f+g+8+9                                      ",
"                                                                "
};
