/* XPM */
static char *freeimage[] = {
/* width height num_colors chars_per_pixel */
"24 24 255 2",
/* colors */
"   c #ffffff",
" . c #fefdfc",
" X c #fcfaf6",
" o c #f4ebe0",
" O c #f1e5d5",
" + c #f3e7d6",
" @ c #f3e8d7",
" # c #f1e4d3",
" $ c #f3eade",
" % c #f7f3ed",
" & c #f7f0e5",
" * c #dec4a2",
" = c #d5b282",
" - c #dcb985",
" ; c #ddbb88",
" : c #dbb886",
" > c #d6b07e",
" , c #dbc19e",
" < c #e8dbc9",
" 1 c #fbf8f3",
" 2 c #f1e6d4",
" 3 c #e2c7a2",
" 4 c #eace9a",
" 5 c #eece8c",
" 6 c #eec777",
" 7 c #ebc677",
" 8 c #ebc679",
" 9 c #edc67c",
" 0 c #ebce99",
" q c #e9d3ad",
" w c #e6d3ba",
" e c #f6f0e8",
" r c #f0e5d6",
" t c #e7d1af",
" y c #e4c289",
" u c #f1d38d",
" i c #f7d684",
" p c #f6cb6b",
" a c #e6be69",
" s c #e0ba6b",
" d c #e4bd70",
" f c #ecc981",
" g c #eaca8d",
" h c #debf94",
" j c #f0e4d2",
" k c #f9f6f2",
" l c #ddc5a8",
" z c #dcbb85",
" x c #fce097",
" c c #f4d27c",
" v c #f1c96a",
" b c #f3c760",
" n c #cda55d",
" m c #bb945c",
" M c #deb158",
" N c #edc168",
" B c #e6c38c",
" V c #ebd9bf",
" C c #eee5d9",
" Z c #e2caa5",
" A c #e0bc7a",
" S c #f9d77e",
" D c #f5d071",
" F c #efc666",
" G c #e6b85c",
" H c #d1b88a",
" J c #c7b8a2",
" K c #dbb46d",
" L c #e8ba61",
" P c #edcb7e",
" I c #cfba97",
" U c #bfb2a3",
" Y c #e5cb9f",
" T c #e4be75",
" R c #f9d881",
" E c #f5d072",
" W c #f0c666",
" Q c #e8ba5e",
" ! c #d6bc8f",
" ~ c #cdbda7",
" ^ c #ddb771",
" / c #eabd5f",
" ( c #f3ce71",
" ) c #c1aa80",
" _ c #a89987",
" ` c #e6c995",
" ' c #e5c075",
" ] c #fde4a1",
" [ c #f4d37f",
" { c #f2cb6c",
" } c #f8cc66",
" | c #dbb16a",
".  c #cda46c",
".. c #e6bb64",
".X c #f4c862",
".o c #c2a87a",
".O c #a79785",
".+ c #e2c38e",
".@ c #e1b86a",
".# c #fcdf92",
".$ c #f9d987",
".% c #f6d37a",
".& c #edc56c",
".* c #eac26e",
".= c #e9c370",
".- c #f2c868",
".; c #f5c963",
".: c #c0a779",
".> c #fbf8f5",
"., c #f3ebe1",
".< c #e1c089",
".1 c #e3ba69",
".2 c #fad983",
".3 c #fbdb89",
".4 c #f6d278",
".5 c #f7d273",
".6 c #f8d372",
".7 c #f8ce6c",
".8 c #f2c664",
".9 c #e7ba5b",
".0 c #c5ae85",
".q c #b3a89a",
".w c #f3ebe2",
".e c #dcc5a8",
".r c #e3c185",
".t c #ecc573",
".y c #f6d171",
".u c #f7d98c",
".i c #f6d37c",
".p c #f8cf71",
".a c #ebbf66",
".s c #d1a151",
".d c #cebc9e",
".f c #cdcac5",
".g c #efe5d8",
".h c #e6d3b7",
".j c #e4c99d",
".k c #eac983",
".l c #f0cc74",
".z c #f2ce71",
".x c #f4d076",
".c c #f7d47a",
".v c #f4d074",
".b c #f2cd6e",
".n c #e4b75e",
".m c #d2ab67",
".M c #bca98b",
".N c #ddd6cb",
".B c #eeedeb",
".V c #faf8f4",
".C c #f2e9e0",
".Z c #e6d2b7",
".A c #e4c89a",
".S c #ebcb8a",
".D c #f0ce7c",
".F c #f2cd71",
".G c #f0ca69",
".H c #e6bf62",
".J c #deb864",
".K c #d7b770",
".L c #d6b76f",
".P c #d5b670",
".I c #d5b673",
".U c #d1b074",
".Y c #ceb58f",
".T c #cbc8c5",
".R c #edeceb",
".E c #f2eae0",
".W c #d8c0a3",
".Q c #e3c89b",
".! c #f0cb6f",
".~ c #f4cf70",
".^ c #e6bd5a",
"./ c #d6ab55",
".( c #bb975b",
".) c #96826c",
"._ c #998772",
".` c #a2917f",
".' c #bfb9b3",
".] c #dedede",
".[ c #ede3d6",
".{ c #e4cfb3",
".} c #e2c597",
".| c #eac985",
"X  c #ecc774",
"X. c #eac164",
"XX c #e1b459",
"Xo c #d9aa53",
"XO c #d2a451",
"X+ c #c7ac7d",
"X@ c #cabca7",
"X# c #dcd5ce",
"X$ c #ddd7d0",
"X% c #e0dad4",
"X& c #e9e7e5",
"X* c #f4f4f4",
"X= c #e1c495",
"X- c #eac986",
"X; c #eeca76",
"X: c #eac266",
"X> c #e0b156",
"X, c #d5ae69",
"X< c #cfad76",
"X1 c #cfae7c",
"X2 c #d1c4b2",
"X3 c #e1dfdd",
"X4 c #e5bb61",
"X5 c #d19d46",
"X6 c #cfbda0",
"X7 c #d2d2d2",
"X8 c #dcdcdc",
"X9 c #f3f3f3",
"X0 c #e9c883",
"Xq c #eeca72",
"Xw c #f2cc66",
"Xe c #e2b558",
"Xr c #cca35a",
"Xt c #b1956c",
"Xy c #dad0c3",
"Xu c #f0f0f0",
"Xi c #fbfbfb",
"Xp c #e5d1b2",
"Xa c #debf8a",
"Xs c #ebca86",
"Xd c #eeca73",
"Xf c #edc563",
"Xg c #e7bb56",
"Xh c #cda357",
"Xj c #bfa071",
"Xk c #beb2a6",
"Xl c #e9e5e1",
"Xz c #e2b965",
"Xx c #f2d06f",
"Xc c #f3ce66",
"Xv c #e7bb57",
"Xb c #cd9741",
"Xn c #b0936a",
"Xm c #bdb2a6",
"XM c #f6f6f5",
"XN c #fcfcfb",
"XB c #c9b69c",
"XV c #b1956b",
"XC c #b49c6d",
"XZ c #b59b6a",
"XA c #b39869",
"XS c #ccbeac",
"XD c #e5e1dd",
"XF c #fefefd",
"XG c #d2c8bf",
"XH c #baad9e",
"XJ c #b9ab9d",
"XK c #bbafa1",
"XL c #c1b5a9",
"XP c #e6e2de",
"XI c #fbfbfa",
/* pixels */
"                                                ",
"                       . X o O + @ + # $ %      ",
"                       X & * = - ; : > , <      ",
"                     1 2 3 4 5 6 7 8 9 0 q w e  ",
"                     r t y u i p a s d f g h j k",
"                     l z x c v b n m m M N B V C",
"                     Z A S D F G H J J K L P I U",
"                     Y T R E W Q ! ~ ~ ^ / ( ) _",
"                     ` ' ] [ { } |. . ...X }.o.O",
"                    .+.@.#.$.% {.&.*.=.-.;.X.:.O",
"                .>.,.<.1.2.3.$ [.4.5.6.7.8.9.0.q",
"                .w.e.r.t.y.2.# ].u.i.6.p.a.s.d.f",
"              .g.h.j.k.l.y.z.x R.c.v.b.n.m.M.N.B",
"          .V.C.Z.A.S.D.F.G.H.J.K.L.P.I.U.Y.T.R  ",
"          .E.W.Q.S.!.~.G.^./.(.).)._.`.'.]      ",
"        .[.{.}.|X X.XXXoXOX+X@X#X#X$X%X&X*      ",
"    .V.C.{X=X-X;X:X>X,X<X1X2X3                  ",
"    .E.W.}X-.!.!X4X5X6X7X8X9                    ",
"  .[.{.}X0XqXwXeXrXtXyXuX9Xi                    ",
"  XpXaXsXdXfXgXhXjXkXl                          ",
"   `XzXxXcXvXbXnXmXMXN                          ",
"  XBXVXCXZXAXnXSXDXNXF                          ",
"  XGXHXJXJXKXLXPXI                              ",
"                                                "
};
