/* XPM */
static char *freeimage[] = {
/* width height num_colors chars_per_pixel */
"16 16 63 1",
/* colors */
"  c #ffffff",
". c #f7f0e5",
"X c #d2af81",
"o c #dcb985",
"O c #debc8a",
"+ c #d6b07e",
"@ c #decaaf",
"# c #d8b482",
"$ c #fde4a1",
"% c #f8ce71",
"& c #f0cb6f",
"* c #f9d27b",
"= c #f1d7a4",
"- c #dabe98",
"; c #cca97d",
": c #fce097",
"> c #f3c760",
", c #bb945c",
"< c #f1c157",
"1 c #e6c38c",
"2 c #eee5d9",
"3 c #d9b377",
"4 c #f8d372",
"5 c #f6ce69",
"6 c #e1b15b",
"7 c #cdcac5",
"8 c #e0ac51",
"9 c #f1cf78",
"0 c #a99a89",
"q c #daae60",
"w c #f8cc66",
"e c #cda46c",
"r c #a79785",
"t c #d1a151",
"y c #fcdd8c",
"u c #f9d16e",
"i c #dcc5a8",
"p c #e7bf74",
"a c #f6d171",
"s c #f5d482",
"d c #e9cc98",
"f c #ecc564",
"g c #efca6d",
"h c #d09c48",
"j c #b2ada8",
"k c #d8c0a3",
"l c #e6bd5a",
"z c #cea253",
"x c #96826c",
"c c #a2917f",
"v c #cecece",
"b c #e8c892",
"n c #e8bc5f",
"m c #d19d46",
"M c #c9984d",
"N c #bcb8b4",
"B c #dcdcdc",
"V c #f4cd62",
"C c #cf9a43",
"Z c #f2d06f",
"A c #cd9741",
"S c #f6f6f5",
"D c #9a8570",
/* pixels */
"                ",
"        .XoO+@  ",
"       .#$%&*=- ",
"       ;:&>,,<12",
"       345677890",
"       q$&wee>wr",
"       tyy&u4w>r",
"      ipay$s4%t7",
"     id9af4aghj ",
"    kd&alzxxcv  ",
"   kb&nmMN      ",
"  kb&&mvB       ",
" kbgVCc         ",
" qZVAcS         ",
" DxxcS          ",
"                "
};
