/* XPM */
static char *freeimage[] = {
/* width height num_colors chars_per_pixel */
"32 32 6 1",
/* colors */
"  c #ffffff",
". c #c0c0c0",
"X c #ffff00",
"o c #808080",
"O c #ff0000",
"+ c #808000",
/* pixels */
"                                ",
"                  .........     ",
"                ..X.oX..X.o..   ",
"                .....o.Xo.....  ",
"               ....X.X....X.... ",
"             ...X...X.oX.X..... ",
"              ...X.X.oXooO.Xo.X ",
"             ..X...X.XoooX.X....",
"             ...X.X.O.....ooX.o.",
"              .X.X.X.X....oX.X.o",
"             .X....Xo.XoX..X.o.+",
"             ..oX.X..Xo.o.OX.Xo.",
"             .Xo...X.X.oX.X.Xo.o",
"             ..X.X...X.X.X.o.Xo.",
"            .X.oX..X...X.oX.Xo..",
"           ....X..X..X...X.XoX..",
"          ....X.oX.X..X.X.ooo.. ",
"         ....X..X.o.X.oX.XoX... ",
"       .....X..X.XoXoXo.+....   ",
"       ..X.X.oX.O.Xoo.oo....    ",
"      .....o.X..Xo..... ..      ",
"     ...X.X.XoOXoX..            ",
"    ..X...oX.X.... .            ",
"   .....XoX.O... .              ",
" ....X.X.X.oX.. .               ",
"  ..o.o.X.OXo.                  ",
" ..X..XoXoo...                  ",
" .X..X.Xooo..                   ",
" .oXoX.+oX..                    ",
" .oooooo..                      ",
"  ........                      ",
"                                "
};
