/* XPM */
static char *freeimage[] = {
/* width height num_colors chars_per_pixel */
"16 16 62 1",
/* colors */
"  c #ffffff",
". c #f7f0e5",
"X c #d2af81",
"o c #dcb985",
"O c #debc8a",
"+ c #d6b07e",
"@ c #decaaf",
"# c #d8b482",
"$ c #fde4a1",
"% c #f8ce71",
"& c #f0cb6f",
"* c #f9d27b",
"= c #f1d7a4",
"- c #dabe98",
"; c #cca97d",
": c #fce097",
"> c #f3c760",
", c #bb945c",
"< c #f1c157",
"1 c #e6c38c",
"2 c #eee5d9",
"3 c #d9b377",
"4 c #f8d372",
"5 c #e1b15b",
"6 c #cdcac5",
"7 c #e0ac51",
"8 c #f1cf78",
"9 c #a99a89",
"0 c #daae60",
"q c #f8cc66",
"w c #cda46c",
"e c #a79785",
"r c #d1a151",
"t c #fcdd8c",
"y c #f9d16e",
"u c #dcc5a8",
"i c #e7bf74",
"p c #f6d171",
"a c #f5d482",
"s c #e9cc98",
"d c #ecc564",
"f c #efca6d",
"g c #d09c48",
"h c #b2ada8",
"j c #d8c0a3",
"k c #e6bd5a",
"l c #cea253",
"z c #96826c",
"x c #a2917f",
"c c #cecece",
"v c #e8c892",
"b c #e8bc5f",
"n c #d19d46",
"m c #c9984d",
"M c #bcb8b4",
"N c #dcdcdc",
"B c #f4cd62",
"V c #cf9a43",
"C c #f2d06f",
"Z c #cd9741",
"A c #f6f6f5",
"S c #9a8570",
/* pixels */
"                ",
"        .XoO+@  ",
"       .#$%&*=- ",
"       ;:&>,,<12",
"       34&566789",
"       0$&qww>qe",
"       rtt&y4q>e",
"      uipt$a4%r6",
"     us8pd4pfgh ",
"    js&pklzzxc  ",
"   jv&bnmM      ",
"  jv&&ncN       ",
" jvfBVx         ",
" 0CBZxA         ",
" SzzxA          ",
"                "
};
