/* XPM */
static char *freeimage[] = {
/* width height num_colors chars_per_pixel */
"32 32 182 2",
/* colors */
"   c #ffffff",
" . c #f9f9f8",
" X c #f6f1e9",
" o c #f1e6d4",
" O c #e7d8c6",
" + c #eedec8",
" @ c #eee2d2",
" # c #f1e7db",
" $ c #f9f5f1",
" % c #f8f4ed",
" & c #f1e4cc",
" * c #d9c09f",
" = c #d9b78b",
" - c #dcbc8c",
" ; c #e1c18e",
" : c #e4cba2",
" > c #e2d1ba",
" , c #f0e8dd",
" < c #f5eee5",
" 1 c #ebd6b2",
" 2 c #e2c69c",
" 3 c #e6c68d",
" 4 c #e9c47b",
" 5 c #e6c17d",
" 6 c #e5c181",
" 7 c #e4c89a",
" 8 c #e8d2b0",
" 9 c #ecdabd",
" 0 c #f2f0ef",
" q c #f0d498",
" w c #f9dc91",
" e c #f2cf82",
" r c #f5d174",
" t c #f1c969",
" y c #efcc74",
" u c #f1d394",
" i c #edd4a4",
" p c #f7f3ed",
" a c #e8dac8",
" s c #dec7a9",
" d c #e6c994",
" f c #edcc86",
" g c #f3d48b",
" h c #fadb8b",
" j c #f0c96d",
" k c #e0b967",
" l c #dbb36b",
" z c #e2c070",
" x c #dfc295",
" c c #e8ca91",
" v c #f0ce7b",
" b c #eaba59",
" n c #d0aa61",
" m c #c19a5e",
" M c #c8a05f",
" N c #dcb15a",
" B c #eec365",
" V c #e3c493",
" C c #dab678",
" Z c #f8d782",
" A c #f8d57c",
" S c #ebc264",
" D c #e4ba64",
" F c #d1ad78",
" G c #c1a782",
" H c #c6a97c",
" J c #ebc472",
" K c #e8c788",
" L c #dec8a2",
" P c #d1c8bf",
" I c #ddb97c",
" U c #e3ba6a",
" Y c #d0bd9e",
" T c #cdc1b1",
" R c #cdbfa9",
" E c #e1b156",
" W c #ecc369",
" Q c #cdb589",
" ! c #b2a495",
" ~ c #e1bc72",
" ^ c #e9be63",
" / c #d3b68a",
" ( c #cdbda7",
" ) c #cab17d",
" _ c #a79785",
" ` c #e1bf85",
" ' c #f5d27b",
" ] c #d9b474",
" [ c #cbac7a",
" { c #f0c860",
" } c #f4c862",
" | c #e3be7c",
".  c #f9d986",
".. c #eec972",
".X c #ebc96d",
".o c #f8cf6d",
".O c #cbac75",
".+ c #f8d270",
".@ c #cfa85c",
".# c #c3bdb5",
".$ c #e4ceb1",
".% c #d6ae65",
".& c #cea86c",
".* c #d2bfa1",
".= c #ded8d2",
".- c #e5d1b3",
".; c #ebc980",
".: c #e5ba5e",
".> c #d5a95a",
"., c #bdae96",
".< c #d8d0c4",
".1 c #f0f0f0",
".2 c #e3c06b",
".3 c #ddb96d",
".4 c #d5af69",
".5 c #c6b394",
".6 c #c6c2be",
".7 c #e7e2dd",
".8 c #e9c061",
".9 c #c0a467",
".0 c #b39a6d",
".q c #b79f75",
".w c #bba57e",
".e c #d0c2ab",
".r c #dfd9cf",
".t c #e8e6e2",
".y c #f4f3f2",
".u c #bfa46d",
".i c #b39c7c",
".p c #a39280",
".a c #aa9a89",
".s c #afa090",
".d c #b7ab9e",
".f c #dbdbdb",
".g c #edecec",
".h c #f3ece4",
".j c #e7d9c8",
".k c #dbac53",
".l c #d3a452",
".z c #cda460",
".x c #c6ad81",
".c c #c7b8a3",
".v c #e0dbd5",
".b c #ecca7d",
".n c #cfa35c",
".m c #d2cfcc",
".M c #d3c1a5",
".N c #d9cbb6",
".B c #e0c398",
".V c #cea457",
".C c #d2c7b7",
".Z c #d7d7d7",
".A c #e7e7e7",
".S c #e9bf5d",
".D c #dfb157",
".F c #cea55b",
".G c #bc9d65",
".H c #c5af90",
".J c #ecdfce",
".K c #e7c88f",
".L c #e1b556",
".P c #d0a04b",
".I c #bf995e",
".U c #af9a7d",
".Y c #c3b8ad",
".T c #ece9e6",
".R c #dab780",
".E c #e2c07d",
".W c #bb9862",
".Q c #bea684",
".! c #ccc2b7",
".~ c #ce9c48",
".^ c #bd965c",
"./ c #ac977c",
".( c #c2b7ac",
".) c #dcccb6",
"._ c #b99a6d",
".` c #b69563",
".' c #cec5bb",
".] c #a08c78",
".[ c #998570",
".{ c #9d8b77",
/* pixels */
"                                                                ",
"                                 . X o O + + + + + O @ # $      ",
"                               . % & * = = - ; ; = = : > ,      ",
"                             . < + 1 2 3 4 5 4 6 5 6 7 8 9 @ 0  ",
"                           . % o : ; q w e r t y y e u i : : o  ",
"                           p a s d f g h r j k l l z 4 e 3 2 O $",
"                           # * x c h v t t b n m m M N B 5 V 1 ,",
"                           o x C e Z A t S D F G G H l b J K L P",
"                           o x I y A t t b U Y T T R C E W 4 Q !",
"                           o 3 ~ v A r t ^ z / ( ( Y ~ E B y ) _",
"                           o ` z g w ' t t W ] [ [ F U { } t F _",
"                           & | l g w A r t t z l l l ^ } } B F _",
"                           & C D e w.  A r t t.. j.X t.o { B.O _",
"                       . % 9 C D v.  w.  Z ' r r.+.+.o t { b [ !",
"                       p a : | z y A.  w w w Z ' A A.o t ^.@ Q.#",
"                   . % @.$ V 6.. y r Z Z w w Z ' r t t ^.%.&.*.=",
"                   X a.- : c.;.. r.+ t r ' A ' r r.X.:.>.O.,.<.1",
"               . % @ s : c f v r t.X S.:.2 z z z ~.3.4.&.5.6.7  ",
"               0 O.$ : c.; v r t S.8 N.@.9.0.0.0.q.w.5.e.r.t.y  ",
"             p a s 2 c.;.. W W S.: N n.u.i _.p.a.s.d.6.f.g      ",
"          .h.j.$ 2 3.;.. W.: E.k.l.z.x.c P.r.r.r.=.v.t.y .      ",
"         % a s 2 3.b.. W.:.:.n.n.z [.c.m.g                      ",
"      .h.j.$ 2 3.b.b.X ^.k.% /.*.M.N.v.g.y                      ",
"     $ a s.B 3.;...X W.:.V.O.C.Z.f.A.y                          ",
"  .h a.$ 2 3.b.. t.S.D.F.G.H.r.g.g.y                            ",
"  .J * x.K.b.X t {.L.P.I.U.Y.T                                  ",
"   9.R.E.b y t.S.L.V.W.Q.!.r.y                                  ",
"   1.% k.X.X {.L.~.^./.(.7 .                                    ",
"  .)._._.u.u.9.G.`.Q.!.r 0                                      ",
"  .'.].[.[.[.[.{.p.(.t .                                        ",
"  .7.'.'.!.!.!.' P.v.y                                          ",
"                                                                "
};
