/* XPM */
static char *freeimage[] = {
/* width height num_colors chars_per_pixel */
"48 48 218 2",
/* colors */
"   c #ffffff",
" . c #fcfaf8",
" X c #f9f5f1",
" o c #f7f1e7",
" O c #f0e6d9",
" + c #ecebea",
" @ c #f3e9dc",
" # c #f4ede3",
" $ c #f9f4ed",
" % c #fbf8f4",
" & c #e8d7c2",
" * c #e6d6c0",
" = c #e2ceb3",
" - c #e8d1ac",
" ; c #e9d4b5",
" : c #e9d6bb",
" > c #ecd8b7",
" , c #ebddc9",
" < c #ebdfd0",
" 1 c #eee0cd",
" 2 c #e2cbab",
" 3 c #dbbb8c",
" 4 c #d8b78c",
" 5 c #dec194",
" 6 c #dfbf91",
" 7 c #ddc29c",
" 8 c #dec7a8",
" 9 c #ece1d3",
" 0 c #f1e4cc",
" q c #e3caa3",
" w c #ddbc84",
" e c #e1bd81",
" r c #dcb87d",
" t c #ecdbbc",
" y c #e8cd9d",
" u c #e7c88e",
" i c #ebcb8a",
" p c #e9c683",
" a c #ecca7b",
" s c #e9c47a",
" d c #e1bd7b",
" f c #f0d290",
" g c #f0dfc1",
" h c #e7c993",
" j c #edd095",
" k c #f6dc9c",
" l c #f6d892",
" z c #f4d484",
" x c #eec973",
" c c #f2cd72",
" v c #f1ce79",
" b c #f1cf83",
" n c #efd39c",
" m c #ecd3a5",
" M c #f4f0eb",
" N c #e5d0b3",
" B c #fadd91",
" V c #f8d57d",
" C c #f6d06e",
" Z c #f0c768",
" A c #ecc56b",
" S c #e6c16c",
" D c #e2c493",
" F c #e4bb62",
" G c #d3ac64",
" H c #dbb165",
" J c #d5b16c",
" K c #e4be73",
" L c #e5c58c",
" P c #f1e4d2",
" I c #d5b68d",
" U c #f9db8b",
" Y c #f0c563",
" T c #e9bd61",
" R c #d9af60",
" E c #d0a45a",
" W c #bc9a67",
" Q c #c29c5c",
" ! c #c49d60",
" ~ c #d0a661",
" ^ c #e5c282",
" / c #d6c09d",
" ( c #d3af7a",
" ) c #f9d883",
" _ c #edc86a",
" ` c #f4c964",
" ' c #e4b95c",
" ] c #c4a16a",
" [ c #bd9c6b",
" { c #e5b856",
" } c #eec25e",
" | c #e8be69",
".  c #e3d9cd",
".. c #e0c7a0",
".X c #eac983",
".o c #f8ce6b",
".O c #eabc5b",
".+ c #e0b669",
".@ c #d2b17a",
".# c #cab593",
".$ c #c2ac8b",
".% c #c0ae90",
".& c #ccad82",
".* c #d5b472",
".= c #e4b456",
".- c #e6c075",
".; c #e4c99b",
".: c #d5c3a5",
".> c #ccc3ba",
"., c #f8d171",
".< c #f1ca6b",
".1 c #d6ba89",
".2 c #cbbba3",
".3 c #d5b882",
".4 c #c6b290",
".5 c #b5a99a",
".6 c #dcb573",
".7 c #e1b45b",
".8 c #d2c3ac",
".9 c #c0a783",
".0 c #a89887",
".q c #dcb46c",
".w c #cfba97",
".e c #c4b39c",
".r c #d1b993",
".t c #d4b87b",
".y c #bca57c",
".u c #ab9b88",
".i c #c4a97c",
".p c #a69684",
".a c #f1d28b",
".s c #fbe19b",
".d c #d4ac6b",
".f c #d0a76c",
".g c #dbb970",
".h c #daad5c",
".j c #cfa14f",
".k c #f5d173",
".l c #f7d885",
".z c #c2b7ab",
".x c #caab75",
".c c #d3d0cd",
".v c #cba669",
".b c #d6c9b6",
".n c #ded8d2",
".m c #c9bead",
".M c #dfd9ce",
".N c #ebe9e6",
".B c #dbb15b",
".V c #daac53",
".C c #cd9f54",
".Z c #c2a573",
".A c #baa98e",
".S c #bdb1a4",
".D c #e4e0dc",
".F c #ecc363",
".G c #dcbb6d",
".H c #ccc9c5",
".J c #dcdbda",
".K c #f2f1f1",
".L c #ccac64",
".P c #cba564",
".I c #bda16d",
".U c #bea473",
".Y c #c7b087",
".T c #ddd7d0",
".R c #f4f2f0",
".E c #e1ceb8",
".W c #d3a453",
".Q c #b29362",
".! c #a18a6a",
".~ c #9d886c",
".^ c #a38f75",
"./ c #a6937a",
".( c #bbafa0",
".) c #c3bcb2",
"._ c #d3cfc9",
".` c #f9f9f9",
".' c #b1a08c",
".] c #afa08f",
".[ c #b2a395",
".{ c #f6f5f5",
".} c #d5a852",
".| c #c4ae87",
"X  c #d3cabd",
"X. c #d3ccc3",
"XX c #ce9d4c",
"Xo c #d4ab5e",
"XO c #ccb185",
"X+ c #d6d6d6",
"X@ c #cfb68d",
"X# c #d2c5b0",
"X$ c #d9cfc0",
"X% c #d0bc99",
"X& c #e4e4e3",
"X* c #efc865",
"X= c #daaa4d",
"X- c #b29669",
"X; c #b39c7d",
"X: c #dedad7",
"X> c #ddb155",
"X, c #c69952",
"X< c #eac473",
"X1 c #c49650",
"X2 c #b99765",
"X3 c #af987b",
"X4 c #e1ddd9",
"X5 c #ccac6a",
"X6 c #cdb06b",
"X7 c #c4a15f",
"X8 c #be985b",
"X9 c #af9471",
"X0 c #ae946b",
"Xq c #e9e6e1",
"Xw c #c0b4a7",
"Xe c #a08e7b",
"Xr c #9b8874",
"Xt c #9a8771",
/* pixels */
"                                                                                                ",
"                                               . . . X o O O + @ @ @ @ @ o O # # + $ % .        ",
"                                               . . X @ & * = - ; : : > : - - ; & , < # %        ",
"                                               . X o 1 2 3 4 5 3 6 6 6 6 5 4 3 7 8 & 9 $ . .    ",
"                                         . . . o @ 0 : q 3 w e e e e e e r r r 7 q - , O $ $ .  ",
"                                         . . X @ t 2 q y u i p a s a d a s s p f y - ; & , @ $  ",
"                                         . X o g 2 5 h j k l z x c x c x a v b i n m m q 2 , o  ",
"                                         M @ < N q w i j B B V C Z A S S A x a b i f h D 7 & O  ",
"                                       . @ & 2 q u u i z z v c C A F G H J J J K a p p L 7 - P M",
"                                       . < 2 I 3 j l U z v C C Y T R E W Q ! ~ R T Y s ^ u - 1 @",
"                                       . 1 / ( w i B ) v C _ Y ` ' G ] [ [ [ ] G { } | s u q N. ",
"                                       . &.. ( d.X ) V v.o Y A.O.+.@.#.$.$.%.&.* H.= A.- p.;.:.>",
"                                       $ 0.; ( d a V., C.<.< }.= K.1.2.2.>.2.2.3 F.= | A p 3.4.5",
"                                       . &.;.6 K x V., v.<.<.O.7.6 3.>.>.>.>.8 4 H.= T x x.@.9.0",
"                                       . g h.q K b ) V., C Y A.O K w.w /.e /.r.t F.= } Z x.t.y.u",
"                                       $ g L J x i B U v c.<.< ` T.6.@.&.&.& (.6 T } ` ` Z.t.i.p",
"                                       . t L R K.a.s B V c C.<.< Y.+.d.f.f.f.d F T ` ` ` Y.g.y.p",
"                                       X t ^.h K b.s B ) V v C.< _ A.+ J S J S T Y ` ` ` Y.*.y.p",
"                                       X t e ~.+ v B U U ) V C C _ _ _ a _ _ _ C ` ` ` ` Y J.y.0",
"                                       X N e.j F a U U U U U V v C C C C.,.,., C.o.o ` Y T.*.y.0",
"                                   X o P - e R S x ) ) U U U U V V v.k.k.k.,., C.o.o Y.O F.*.$.5",
"                                 . + < *.; e.+ S a., V U U U U B U.l V V.k V., C.o Z T.7.h.@.e.z",
"                                 . P *.. 5 e K A C C V V U U.s.s.s B.l V.k.k v C., C F.h ~.x.2.c",
"                             X o O & N.; h ^ x x a C v v ) ) U U U ) V v v C C A T F H.v.x /.b.n",
"                           . @ 9 & * q.; i.X a C C C C C _ v V ) ) V V C v C _ A.7.h.d.i.%.m.M.N",
"                           . P *.. q.; y i.X v v v C C _ _ _ C v.,.k v C C _ A.B.V.C.Z.A.S.c.N  ",
"                     . X o.D & N.;.; u i.X v v C _.< _.F.7 F.G.G.g.G.g.g.g.g.g J.v.@.#.2.H.J.K  ",
"                     . + 1 & N 2.;.;.X a v v c _ _ _ '.7.B.L.P.I.I.I.I.I.U.Z.9.Y.w.2.b.T.J.N.R  ",
"                     M 9.E 8...; u i a c c C C C A {.7.B.W Q.Q.!.~.~.~.~.^./.u.(.)._.J.K.`      ",
"               . X M O & 8 /.; u i a x A Z A A.O '.7.B G.v.Z.y.'.].].[.[.[.5.S.>.c.J.N.{        ",
"               % + 1 & =.; h L.X.X x A T '.7.=.V.V.} G.x.|.e.m.>X .H.>X.X.X..T.n.N +.K.`        ",
"               M 9 = 8...; L.X a _ A A.O.7.V.j.jXXXX ].$.S.>.n.N M M M M M.R.R.R  .R            ",
"         . X X P & 8 / h L.X a a _ A '.7.BXo ~ ~ ~ ]XO.2.>X+.N.`                                ",
"         % + < & 2 q h L.X a a c A F.7.V J.@X@.r.r /X#X$.J.N +                                  ",
"         M <.E 2...; L.X a a _ _ _ F.V.j.@X%.>X X.._.n.N.R.R                                    ",
"   . % X P &.. / h u.X a _ _ _ A F.B.j EXOX#X+.J.JX&.N.{                                        ",
"   X + P & = /.; ^.X a a.< _ } '.B ~ Q [.wX$.N.N.N +.K.R                                        ",
"   + 1.E 2 q.; u.X a _ _ `X* {X=.j QX-X;.2X:.R.R  .R                                            ",
"   @ * / 5 5 u.X a _ _X*X* {X>.jX, WX;.[.>.D                                                    ",
"   @ N 3 w ^.X a c cX*.O {X> E Q W.9.e.>.n +                                                    ",
"   P y.6.gX< a c _ `X* {X=.j QX-X;.eX..D.N.R                                                    ",
"   0.;.d H.G A _ _ _ '.VXXX1X2X3.[.>X4.R.`                                                      ",
"   < / ] ]X5X6X6X6.L.LX7X8 W.9.e.>.T +.`                                                        ",
"  . .2X9X0X0X0X0X-X0X0X0X0X;.eX$X4Xq.R                                                          ",
"  .nXwXeXrXrXtXtXtXtXrXe.p.[.>.D.R  .{                                                          ",
"  XqX.Xw.S.(.(.(.(.(.S.S.z.>X: + %                                                              ",
"  .RXq.n.T.T.T.T.T.T.T.nX:.D +.R                                                                ",
"                                                                                                "
};
