/* XPM */
static char *freeimage[] = {
/* width height num_colors chars_per_pixel */
"48 48 7 1",
/* colors */
"  c #ffffff",
". c #c0c0c0",
"X c #808080",
"o c #ffff00",
"O c #ff0000",
"+ c #808000",
"@ c #800080",
/* pixels */
"                                                ",
"                            . .. .. . . .       ",
"                          ............... .     ",
"                        . ...X.X.X..o......     ",
"                         ..o...o.o.XX.O....     ",
"                     . ......o.X.X.o.o.o..o...  ",
"                       ....o...o.o.o..........  ",
"                     ....o...o..o.X.Xo.o...o... ",
"                    ...o...o..o.o.o.oXX.o..X... ",
"                    .....o..o..o..O.+.o.o.o.....",
"                    ..o.o..o.Xo.OoXo.XXO.oX.o...",
"                    ...X..o.Xo..o.X.O.o.o.o.X...",
"                    ..o.Xo..o.oO..X....X.O..o...",
"                    .o..o..o.oX.o......o.oXo.oXX",
"                    ..Xo.o.o..oXXo...o..O.o...X.",
"                    ..o....o.o.o..X.X.XXo.oXXoXX",
"                    .o.Xo.o..o.Xo.o.o.Xo.Xo.o.X.",
"                    ..oX....o..o.O..O.Xo.o..oXXX",
"                    .oX.o..o..o.o.oXo.o.Xo.o..X.",
"                    ..oX..o..o.o..o..o.Xo.O.oXoX",
"                  ...o.o.o..o...o...o..o.o.oX.X.",
"                  ....O.o..o...o.o.o.o.o.Xo.oX..",
"                 ....o.o..o..o....o..Xo..o.O.o..",
"                 ...o.X.Xo.o..o.o..o.o.Xo.XoX...",
"               .......o.o.X.o....o...o.oXXoX... ",
"              ....o..o..o.o.o.o.o.o.o.oXXoX...  ",
"             ...o...o..o..o.o.XoX.Xo...XoX....  ",
"           ........o..o.Xo.O..oX.oX.OoXo.....   ",
"          . ....o.o.O.o.oXXoXO.XX+.+.X....      ",
"           ..o..X..o.oX.o.oXoXoXX.XX.X... .     ",
"         ..o...o.Xo.Xo.oXoXX............ .      ",
"        ......o..o.XoX.O.O.o...                 ",
"       ......o..oXoXXo@oXo....                  ",
"      ...o.o.X.o..o.o.o..... .                  ",
"     ........o.O.oXO....... .                   ",
"    ....o.o.o.o.o.oX... .                       ",
"  . ..o.....oX.oXXO.o.. . .                     ",
"  .....X.o.o..oX.oX...                          ",
"  .o...o.O.o.oXoOXoX.                           ",
"  ..X.o..o.O.o.+.....                           ",
" ...o..Xo.oXoXO.+.. .                           ",
"  oX.oXo.Xo.oXoX...                             ",
" ...oX.X.oXXO.X....                             ",
" ..+.XoXoX.XoX...                               ",
"  .XX+XXXX+XX..                                 ",
" .......X.......                                ",
"   .. .. .. .                                   ",
"                                                "
};
