/* XPM */
static char *freeimage[] = {
/* width height num_colors chars_per_pixel */
"16 16 50 1",
/* colors */
"  c #d1e0f0",
". c #5b92cb",
"X c #4382c4",
"o c #4282c4",
"O c #aac7e4",
"+ c #e7eff7",
"@ c #edf3f9",
"# c #565858",
"$ c #232626",
"% c #dbdbdb",
"& c #c7c8c8",
"* c #727373",
"= c #4a4d4d",
"- c #c0c0c0",
"; c #a0a1a1",
": c #8c8e8e",
"> c #6a6c6c",
", c #a4a5a5",
"< c #828484",
"1 c #a8a9a9",
"2 c #8a8c8c",
"3 c #cdcece",
"4 c #ffffff",
"5 c #4483c4",
"6 c #eaf1f8",
"7 c #626464",
"8 c #bcbcbc",
"9 c #6e9fd1",
"0 c #81acd7",
"q c #c8daed",
"w c #f0f5fa",
"e c #bdd3ea",
"r c #ebf2f8",
"t c #8ab2da",
"y c #4f8ac8",
"u c #d4e2f1",
"i c #8cb3db",
"p c #6297ce",
"a c #77a5d4",
"s c #7aa7d5",
"d c #4c88c7",
"f c #f6f9fc",
"g c #508bc8",
"h c #dce8f4",
"j c #97bade",
"k c #8db4db",
"l c #9fbfe1",
"z c #4d89c7",
"x c #e4edf6",
"c c #568fca",
/* pixels */
" .XooooooooooX. ",
".O++++++++++++O.",
"X@#$$$$$$$$$$#@X",
"o@%&&&&&&&&&&%@o",
"o@*==========*@o",
"o@-;;;;;;;;;;-@o",
"o@:>>>>>>>>>>:@o",
"o@,<<<<<<<<<<,@o",
"o@122222344444@o",
"5627777784444465",
"90q444weeeeeee09",
"rtyu44ipaaaaaatr",
"44Os4rdr44444444",
"44fghjk444444444",
"444lszx444444444",
"444wck4444444444"
};
