/* XPM */
static char *freeimage[] = {
/* width height num_colors chars_per_pixel */
"16 16 62 1",
/* colors */
"  c #ffffff",
". c #777758",
"X c #979784",
"o c #84845e",
"O c #b3b300",
"+ c #8d8d00",
"@ c #b0b000",
"# c #ffff00",
"$ c #d9d900",
"% c #585800",
"& c #84847d",
"* c #c0c0c0",
"= c #d9d9d9",
"- c #d7d700",
"; c #929200",
": c #484800",
"> c #813281",
", c #7a4b7a",
"< c #dfdfdf",
"1 c #474700",
"2 c #4b4b42",
"3 c #a0a0a0",
"4 c #aaaaaa",
"5 c #8d8d8d",
"6 c #7a2f7a",
"7 c #aa007a",
"8 c #71001c",
"9 c #554242",
"0 c #8d8d84",
"q c #dcdcdc",
"w c #8b8b8b",
"e c #b6b6b6",
"r c #551255",
"t c #b30087",
"y c #8c0019",
"u c #3d0000",
"i c #a09a9a",
"p c #8e8e8e",
"a c #a097a0",
"s c #48000f",
"d c #400000",
"f c #9b9797",
"g c #9a9a9a",
"h c #898989",
"j c #d4d4d4",
"k c #c6c6c6",
"l c #5e8484",
"z c #b8b8b8",
"x c #9f9f9f",
"c c #2f5555",
"v c #009797",
"b c #007777",
"n c #5e7171",
"m c #587777",
"M c #009c9c",
"N c #009f9f",
"B c #005858",
"V c #849797",
"C c #006363",
"Z c #005a5a",
"A c #848d8d",
"S c #586868",
/* pixels */
"                ",
"    .X          ",
"   oO+X         ",
"  o@#$%&    *=  ",
" .O#-;:&   *>,< ",
" X+$;1234456789 ",
"  X%:0q wertyui ",
"   &&   p asdf  ",
"        p  gg   ",
"        p       ",
"        hjkll   ",
"        zxcvbn  ",
"         mMNBn  ",
"         VCZn   ",
"          AS    ",
"                "
};
