/* XPM */
static char *freeimage[] = {
/* width height num_colors chars_per_pixel */
"24 24 104 2",
/* colors */
"   c #ffffff",
" . c #dbdbdb",
" X c #959595",
" o c #535353",
" O c #333333",
" + c #d9d9d9",
" @ c #8d8d8d",
" # c #515151",
" $ c #d4d4d4",
" % c #7e7e7e",
" & c #4c4c4c",
" * c #d7d7d7",
" = c #9d9d9d",
" - c #4f4f4f",
" ; c #3c3c3c",
" : c #f6f6f6",
" > c #e4e4e4",
" , c #a7a7a7",
" < c #6f6f6f",
" 1 c #3f3f3f",
" 2 c #373737",
" 3 c #b0b0b0",
" 4 c #6c6c6c",
" 5 c #4b4b4b",
" 6 c #3b3b3b",
" 7 c #f5f5f5",
" 8 c #f4f4f4",
" 9 c #fbfbfb",
" 0 c #eaeaea",
" q c #b8b8b8",
" w c #696969",
" e c #717171",
" r c #777777",
" t c #7c7c7c",
" y c #b1b1b1",
" u c #cdcdcd",
" i c #e2e2e2",
" p c #efefef",
" a c #bdbdbd",
" s c #8c8c8c",
" d c #5d5d5d",
" f c #929292",
" g c #838383",
" h c #747474",
" j c #a8a8a8",
" k c #d1d1d1",
" l c #606060",
" z c #8b8b8b",
" x c #cecece",
" c c #646464",
" v c #808080",
" b c #868686",
" n c #6e6e6e",
" m c #878787",
" M c #cfcfcf",
" N c #ebebeb",
" B c #4e4e4e",
" V c #616161",
" C c #b5b5b5",
" Z c #424242",
" A c #b6b6b6",
" S c #404040",
" D c #5f5f5f",
" F c #9c9c9c",
" G c #d0d0d0",
" H c #fafafa",
" J c #fdfdfd",
" K c #5c5c5c",
" L c #6a6a6a",
" P c #9b9b9b",
" I c #f1f1f1",
" U c #939393",
" Y c #727272",
" T c #dcdcdc",
" R c #f8f8f8",
" E c #c1c1c1",
" W c #dedede",
" Q c #999999",
" ! c #757575",
" ~ c #afafaf",
" ^ c #d3d3d3",
" / c #cacaca",
" ( c #f0f0f0",
" ) c #e0e0e0",
" _ c #a2a2a2",
" ` c #464646",
" ' c #737373",
" ] c #8e8e8e",
" [ c #f9f9f9",
" { c #636363",
" } c #474747",
" | c #393939",
".  c #ededed",
".. c #898989",
".X c #454545",
".o c #c4c4c4",
".O c #828282",
".+ c #353535",
".@ c #676767",
".# c #444444",
".$ c #d6d6d6",
".% c #858585",
".& c #343434",
".* c #363636",
/* pixels */
"                             . X o O O O O O O O",
"                             + @ # O O O O O O O",
"                             $ % & O O O O O O O",
"                           * = - ; O O O O O O O",
"                       : > , < 1 2 O O O O O O O",
"                       > 3 4 5 5 6 O O O O O O O",
" 7 7 7 8 8 8 8 9     0 q w e r t o 1 1 1 1 1 1 1",
" y y y 3 3 3 3 u i p a s d f 3 q X g g g g g g g",
" O O O O O O O h j k r l z x 7                  ",
" O O O O O O O c v b n m M N 9                  ",
" O O O O O O O B d V g C 7 9                    ",
" O O O O O O O O Z V A N                        ",
" O O O O O O O O Z V A N                        ",
" O O O O O O O S - D F G H J                    ",
" O O O O O O O K L d L P I H                    ",
" O O O O O O O 4 U j Y Y j T R                  ",
" Y e e e e e e = E W Q ! < ~ ^ . / E E E E E E E",
" I p p p p p p ( 7   ) _ ` ' ] X l ` ` ` ` ` ` `",
" H [ [ [ [ [ [ H 9   8 x s < V { } | | | | | | |",
"                      .  /.. d.X | O O O O O O O",
"                          .o.O |.+ O O O O O O O",
"                           N q.@.# O O O O O O O",
"                            .$.% B O O O O O.&.+",
"                             . X o O O O O O.* |"
};
