/* XPM */
static char *freeimage[] = {
/* width height num_colors chars_per_pixel */
"48 48 192 2",
/* colors */
"   c #ffffff",
" . c #e1e1e1",
" X c #bfbfbf",
" o c #9d9d9d",
" O c #7d7d7d",
" + c #5e5e5e",
" @ c #3e3e3e",
" # c #333333",
" $ c #dfdfdf",
" % c #bbbbbb",
" & c #979797",
" * c #787878",
" = c #5b5b5b",
" - c #3d3d3d",
" ; c #dddddd",
" : c #b7b7b7",
" > c #909090",
" , c #727272",
" < c #585858",
" 1 c #dbdbdb",
" 2 c #b2b2b2",
" 3 c #8a8a8a",
" 4 c #6d6d6d",
" 5 c #545454",
" 6 c #3c3c3c",
" 7 c #f8f8f8",
" 8 c #f1f1f1",
" 9 c #eaeaea",
" 0 c #c7c7c7",
" q c #9f9f9f",
" w c #777777",
" e c #5f5f5f",
" r c #4c4c4c",
" t c #3a3a3a",
" y c #efefef",
" u c #cfcfcf",
" i c #acacac",
" p c #868686",
" a c #606060",
" s c #4e4e4e",
" d c #424242",
" f c #373737",
" g c #e6e6e6",
" h c #cdcdcd",
" j c #b4b4b4",
" k c #929292",
" l c #6e6e6e",
" z c #4a4a4a",
" x c #393939",
" c c #343434",
" v c #fefefe",
" b c #f9f9f9",
" n c #f4f4f4",
" m c #d2d2d2",
" M c #b5b5b5",
" N c #989898",
" B c #7b7b7b",
" V c #434343",
" C c #fdfdfd",
" Z c #f0f0f0",
" A c #e3e3e3",
" S c #d5d5d5",
" D c #999999",
" F c #7a7a7a",
" G c #686868",
" H c #575757",
" J c #464646",
" K c #fcfcfc",
" L c #e7e7e7",
" P c #d1d1d1",
" I c #bcbcbc",
" U c #9c9c9c",
" Y c #5d5d5d",
" T c #4f4f4f",
" R c #494949",
" E c #353535",
" W c #d7d7d7",
" Q c #878787",
" ! c #6f6f6f",
" ~ c #555555",
" ^ c #565656",
" / c #444444",
" ( c #363636",
" ) c #f7f7f7",
" _ c #fbfbfb",
" ` c #f6f6f6",
" ' c #e4e4e4",
" ] c #c2c2c2",
" [ c #767676",
" { c #707070",
" } c #6a6a6a",
" | c #6b6b6b",
".  c #6c6c6c",
".. c #626262",
".X c #525252",
".o c #f3f3f3",
".O c #f2f2f2",
".+ c #838383",
".@ c #666666",
".# c #717171",
".$ c #7c7c7c",
".% c #808080",
".& c #828282",
".* c #858585",
".= c #757575",
".- c #dadada",
".; c #d9d9d9",
".: c #d8d8d8",
".> c #dcdcdc",
"., c #ededed",
".< c #f5f5f5",
".1 c #e2e2e2",
".2 c #d0d0d0",
".3 c #656565",
".4 c #949494",
".5 c #9a9a9a",
".6 c #a0a0a0",
".7 c #919191",
".8 c #646464",
".9 c #5c5c5c",
".0 c #a4a4a4",
".q c #c5c5c5",
".w c #d3d3d3",
".e c #c8c8c8",
".r c #adadad",
".t c #848484",
".y c #747474",
".u c #7f7f7f",
".i c #bebebe",
".p c #b9b9b9",
".a c #aaaaaa",
".s c #9e9e9e",
".d c #b3b3b3",
".f c #aeaeae",
".g c #b6b6b6",
".h c #d4d4d4",
".j c #e0e0e0",
".k c #a9a9a9",
".l c #505050",
".z c #939393",
".x c #b1b1b1",
".c c #eeeeee",
".v c #404040",
".b c #797979",
".n c #969696",
".m c #c9c9c9",
".M c #dedede",
".N c #7e7e7e",
".B c #696969",
".V c #8d8d8d",
".C c #b0b0b0",
".Z c #fafafa",
".A c #888888",
".S c #9b9b9b",
".D c #5a5a5a",
".F c #a2a2a2",
".G c #383838",
".H c #474747",
".J c #bdbdbd",
".K c #ebebeb",
".L c #3b3b3b",
".P c #595959",
".I c #676767",
".U c #a6a6a6",
".Y c #c3c3c3",
".T c #d6d6d6",
".R c #e8e8e8",
".E c #636363",
".W c #8c8c8c",
".Q c #a1a1a1",
".! c #a5a5a5",
".~ c #cbcbcb",
".^ c #8f8f8f",
"./ c #414141",
".( c #cccccc",
".) c #cecece",
"._ c #b8b8b8",
".` c #959595",
".' c #ababab",
".] c #c4c4c4",
".[ c #a8a8a8",
".{ c #8e8e8e",
".} c #c6c6c6",
".| c #a3a3a3",
"X  c #616161",
"X. c #4b4b4b",
"XX c #515151",
"Xo c #e5e5e5",
"XO c #3f3f3f",
"X+ c #ececec",
"X@ c #898989",
"X# c #bababa",
/* pixels */
"                                                           . X o O + @ # # # # # # # # # # # # #",
"                                                           $ % & * = - # # # # # # # # # # # # #",
"                                                           ; : > , < - # # # # # # # # # # # # #",
"                                                           1 2 3 4 5 6 # # # # # # # # # # # # #",
"                                                     7 8 9 0 q w e r t # # # # # # # # # # # # #",
"                                                     y $ u i p a s d f # # # # # # # # # # # # #",
"                                                     g h j k l z - x c # # # # # # # # # # # # #",
"                                             v b n y m M N B e V t f c # # # # # # # # # # # # #",
"                                             C Z A S : D F G H J @ x c # # # # # # # # # # # # #",
"                                             K L P I U O Y 5 T R V 6 E # # # # # # # # # # # # #",
" K K K K K K K K K K K K K K C v       v K b n W % q Q ! < ~ ^ ^ s / x ( ( ( ( ( ( ( ( ( ( ( ( (",
" 7 7 7 7 7 ) ) ) ) ) ) ) ) 7 _ C       C ` y ' ] q O [ { } |.  l...X d 6 6 6 6 6 6 6 6 6 6 6 6 6",
".o.o.o.o.o.O.O.O.O.O.O.O.O n 7 K       K Z ' S i.+ =.@.#.$.%.&.*.= a z d d d d d d d d d d d d d",
".-.-.-.-.;.;.:.:.:.:.:.:.:.> '.,.o.< ) n.1.2 I & , s.3.$.4.5 o.6.7 F.8.9.9.9.9.9.9.9.9.9.9.9.9.9",
" o o o o o U U U U U U U U.0 M.q.w 1 ' A.e.r.4.t.y.8.u D j %.i ].p.a U & & & & & & & & & & & & &",
" a a a a a a a a a a a a a. .*.s.d ] P.w.f 3 | {.= F N.g.h.>.j ' ..-.h m m m m m m m m m m m m m",
" # # # # # # # # # # # # # d a.u N.k %.i & {.l.@.$.z.x u.c.< b C                                ",
" # # # # # # # # # # # # #.v =.= 3.z o.s p l Y.b.n.d.m.M.o 7 _ v                                ",
" # # # # # # # # # # # # # @ ~.  B O.u.N.=. .B.V.C.h.j., b K C v                                ",
" # # # # # # # # # # # # # 6 T...  G.8.. G l *.6.m 8.<.Z v                                      ",
" # # # # # # # # # # # # # x J.X = Y e.3 w.A.S.p W ` 7 _ v                                      ",
" # # # # # # # # # # # # # ( 6 d R.X.D G.*.F.i m g.Z _ C v                                      ",
" # # # # # # # # # # # # # # # #.G.H ~ |.4.J.1.K.<                                              ",
" # # # # # # # # # # # # # # # #.G.H ~ |.4.J.1.K.<                                              ",
" # # # # # # # # # # # # # # # #.G.H ~ |.4.J.1.K.<                                              ",
" # # # # # # # # # # # # # # # #.G.H ~ |.4.J.1.K.<                                              ",
" # # # # # # # # # # # # # E.L.v.H.l.P.I p.U.Y.T.R _ K C v                                      ",
" # # # # # # # # # # # # #.G /.l < = Y.E w.W.Q.J.- ` b _ v                                      ",
" # # # # # # # # # # # # # 6 s a }.3 a e G.#.N.!.~.O `.Z v                                      ",
" # # # # # # # # # # # # # @ 5 |.b * * [.#. . .^.d W.1.c.Z K C v                                ",
" # # # # # # # # # # # # #.v.D.y Q.^.n &.& 4 e B N j.m $ n b _ v                                ",
" # # # # # # # # # # # # #./ e O.n.! j :.z !.X.I.$.7.C u.c `.Z v                                ",
".P < < < < < < < < < < < <.3.N &.r I.(.).a.*.@.  , * N._.:.j '.R g.j 1.;.;.;.;.;.;.;.;.;.;.;.;.;",
".`.`.`.4.4.4.4.4.4.4.4.4.4 U.' %.e.h $.j.].[.{.% ,.8.% U._ X.Y.}.i.C.|.s.s.s.s.s.s.s.s.s.s.s.s.s",
" m m P.2.2.2.2.2.2.2.2.2.2.w.;.M '.K.O.O $.( :.4 ,.l G.% N.s.Q.!.n.% |.E.E.E.E.E.E.E.E.E.E.E.E.E",
".o.O.O 8 8 8 8 8 8 8 8 8 8 8.O.O n 7 K _ y A.w.k.% ^.8.#.u.+.*.A *X X. d d d d d d d d d d d d d",
" ) ) ) ` ` ` ` ` ` ` ` ` ` ` ) ) 7.Z C C.<.,.1 X U *.y {.  4 !.#.8 5 V 6 6 6 6 6 6 6 6 6 6 6 6 6",
" K K _ _ _ _ _ _ _ _ _ _ _ _ _ K K C v v _ 7.O S :.5.* !.D <.P.PXX J t ( ( ( ( ( ( ( ( ( ( ( ( (",
"                                             KXo u.p D.b.D.X s R V 6 E # # # # # # # # # # # # #",
"                                             C y.j m j.` w.3 ^ JXO t c # # # # # # # # # # # # #",
"                                             v 7.OX+.).x.4.b + / t f c # # # # # # # # # # # # #",
"                                                    Xo.~.x.{ |.H.L.G c # # # # # # # # # # # # #",
"                                                    .c ;.(.k.+ + r./ f # # # # # # # # # # # # #",
"                                                     ) y L.Y U.y YX. x # # # # # # # # # # # # #",
"                                                           1 2X@.  5 6 # # # # # # # # # # # # #",
"                                                           ;.g.^ , H 6 # # # # # # # # # # # c E",
"                                                           $X#.n w.D - # # # # # # # # # # c E f",
"                                                           . X o O + @ # # # # # # # # # # E f x"
};
