/* XPM */
static char *freeimage[] = {
/* width height num_colors chars_per_pixel */
"48 48 6 1",
/* colors */
"  c #ffffff",
". c #c0c0c0",
"X c #808080",
"o c #800000",
"O c #008080",
"+ c #000000",
/* pixels */
"                             ...XoOoOoO+oOo++X+O",
"                              .XXX++X++oOo+OoO+o",
"                             ..XXX+X+OoOo+X+X+oO",
"                             ..XXOoO+oOoOO+X+OOo",
"                             .XXXoOo+X+Oo+oOo+o+",
"                           ...XX+X+X+Oo+oOOo+OoO",
"                           ..XXX+X+Oo+X+Oo+oOoOo",
"                          ..XXX+X++X+X+OoOoO+X++",
"                         ..XXXX+X+X+oO+oOo+Oo+Oo",
"                        ..XXXoOoOoO+X+oOo+Xo+OoO",
"                       ..XXX+X+XOo+oO+X+O+O+OoOo",
"    .   .  .          ..XXXXXXXXoOXOoOoOoXoXoOoO",
"                      ..XXXXXXXXXX+o+oO+X++O+Oo+",
" . . .. . . ..    . ...XX+XXX.X.XXXXOXXoOXXXoXXO",
"XXXXXX.XXXXXX....   ..XXXXXX......X.X.X.X.X.X.X.",
"XXXXXXoXXXXXXOXX.....XXXXXX... . ...............",
"+X++X+X+oO+oOoXXX...XXOXXX..  .                 ",
"+X+X+O+X+OoOoOoXXXXXXXoXX...                    ",
"Oo+Oo+oO+X+oO+XOXXXXXOXX...                     ",
"+oOo+XO+oOoO+oXXXXXoXXXX.                       ",
"OoO+X+o+X++X+X+XOoOXXX...                       ",
"+oOo+O+X+oOoO+X+XXoXXX...                       ",
"OoO+X+X+OoO+oOo+X+XXX..                         ",
"+oOo+X++oO+oOoO+X+XXX.                          ",
"+X++X+oOoOoOoO+oOoOXX. .                        ",
"OoOoO+X+Oo+X++X+X+XOX..                         ",
"+oO+oOo+X+Oo+X+oOXXoX...                        ",
"oOoOoO+Oo+X+OoOOoOoOXX...                       ",
"+Oo+OoOo+Oo+X+XoXXXXXoXX.                       ",
"Oo+Oo+X+Oo+Oo+XXXXXXXXXX...                     ",
"oOoOoOoOoOoOoOXXXXXXXXXXX..                     ",
"++Oo++O+o+O+oOoXX...XX+XXX..                    ",
"XXoOXXoXOXoXOXXX.....XXXXXX.. . . . . . . . . ..",
"X.X.X.XX.X.X.X.... ...XXXXXX......XXXXXXXXXXXX.X",
"....... ....... .  . ..XX+XXX.X.XXXXXXXXXXXXXXoX",
"  .  . . .  .  .     ...XXXXXXXXXoOoOoOoOoOoOoOX",
"                     . .XXXXoOXXXOoX+X+OoOoOoOo+",
"                       ..XXXXXoXOoO+X+X+oO+X+OoO",
"                       . .XXX+XOoX+X+oOoO+oOoOoO",
"                        ...XXX+X+Oo+Oo+OoOo+oOo+",
"                          ..XXXoOo+OoO+X+oO+Oo+O",
"                          . .XX+OoOoOoOo+OoOo+Oo",
"                           ...XXo+X+oO+oOoOo+OoO",
"                            ...XOX+Oo+oO+X+OoOo+",
"                             ..XXoOoO+OoOo+oO+X+",
"                              .XXX+X+X+X++X+X+oO",
"                             ..XXX++X+oO+X+Oo+O+",
"                              .XXX+X++X+oO+oOoOo"
};
