/* XPM */
static char *freeimage[] = {
/* width height num_colors chars_per_pixel */
"48 48 26 1",
/* colors */
"  c #ffffff",
". c #e1e1e1",
"X c #bdbdbd",
"o c #9d9d9d",
"O c #7d7d7d",
"+ c #5d5d5d",
"@ c #3c3c3c",
"# c #353535",
"$ c #333333",
"% c #b1b1b1",
"& c #797979",
"* c #8e8e8e",
"= c #515151",
"- c #acacac",
"; c #6d6d6d",
": c #f9f9f9",
"> c #eeeeee",
", c #c2c2c2",
"< c #494949",
"1 c #cdcdcd",
"2 c #858585",
"3 c #656565",
"4 c #414141",
"5 c #d1d1d1",
"6 c #959595",
"7 c #a5a5a5",
/* pixels */
"                             .XoO+@#$$$$$$$$$$$#",
"                             .%o&+@#$$$$$$$$$$$$",
"                             .%*&=@##$$$$$$$$$$#",
"                             .-*;=@#$$$$$$$$$$$$",
"                          :>>,o&+<@#$$$$$$$$$$$#",
"                          :.1-23<4##$$$$$$$$$$$$",
"                          .5%6;<@@#$$$$$$$$$$$$#",
"                       ::>5%oO+4@##$$$$$$$$$$$$$",
"                       >.5X6O;=<4@##$$$$$$$$$$$#",
"                       .5XoO+==<4@##############",
" :::::::::::::      : :5Xo2;+====4@#############",
":::::::::::::::     :>.,7O&;3;;;+=4@@@@@@@@@@@@@",
"::>:>:>:>:>:>::: : :>.5-2+3&&O22&+44444@4@4@4@44",
".5..5.5.5.5.5..:::::.1X6;<3O6ooo6O3+++++++++++++",
"ooooooooooooo7%,5...1-62&+2o%XXXX-oo6o6o6o6o6o6o",
"+++++++++++++;2o%,55-*;;&&6%5....555555555555555",
"#$$$$$$$$$$$#4+Oo7XX6&<3O6-1>::                 ",
"#$$$$$$$$$$$#@+&26oo2;+O6%1.>::                 ",
"#$$$$$$$$$$$$@=;OOOO&;3*-5.>::                  ",
"#$$$$$$$$$$$#@=3;3333;&o1>::                    ",
"#$$$$$$$$$$$$#4=+++3&2oX5:::                    ",
"#$$$$$$$$$$$$#@4<=+;27X5. :                     ",
"#$$$$$$$$$$$$$$$#<=;6X..:                       ",
"#$$$$$$$$$$$$$$##<=;6X.>:                       ",
"#$$$$$$$$$$$$$$$#<=;6X.>:                       ",
"#$$$$$$$$$$$$###@4=;6X.>:                       ",
"#$$$$$$$$$$$##@44=+327,5.                       ",
"#$$$$$$$$$$$$#4<+++3&*oX.>::                    ",
"#$$$$$$$$$$$#@<333++3;O71>::                    ",
"#$$$$$$$$$$$#@=;O&&&&;;*%..> :                  ",
"#############@+&2*6oO;+Oo%1.>::                 ",
"#############@+O67%%6;=3O*-1>::                 ",
"+=+=+=+=+=+=+3Oo-X11-23;;O6X...>...5.5.5.5.5.5.5",
"6666666666666o-%15..X-*O&3Oo%,,,,%7ooooooooooooo",
"15555555555555...>>:.1%6&<;O6oo76O;3333333333333",
":>>>>>>>>>>>>>>>>:: >.5-O=3&O222O3<4444444444444",
":::>::>::>::>:::::  >>.Xo&&;;;&;3=4@@@@@@@@@@@@@",
"                     :>5X62;++=+=4@#############",
"                       .1XoO===<4@#$$$$$$$$$$$$$",
"                       >.5%6&3=<@@#$$$$$$$$$$$$#",
"                        >>1%6O+4@###$$$$$$$$$$$$",
"                          .1-*;4@@#$$$$$$$$$$$$#",
"                          >.1-O+<4##$$$$$$$$$$$$",
"                          :>.,o&+<@$$$$$$$$$$$$#",
"                             .-*3=@#$$$$$$$$$$##",
"                             .%*&=@#$$$$$$$$$###",
"                             .X6&+@##$$$$$$$####",
"                             .XoO+@############@"
};
