/* XPM */
static char *freeimage[] = {
/* width height num_colors chars_per_pixel */
"32 32 154 2",
/* colors */
"   c #ffffff",
" . c #e8e8e8",
" X c #b5b5b5",
" o c #838383",
" O c #535353",
" + c #333333",
" @ c #e6e6e6",
" # c #adadad",
" $ c #7a7a7a",
" % c #505050",
" & c #e3e3e3",
" * c #a6a6a6",
" = c #717171",
" - c #4c4c4c",
" ; c #f5f5f5",
" : c #c0c0c0",
" > c #858585",
" , c #585858",
" < c #424242",
" 1 c #ebebeb",
" 2 c #c4c4c4",
" 3 c #979797",
" 4 c #616161",
" 5 c #3d3d3d",
" 6 c #373737",
" 7 c #f6f6f6",
" 8 c #e7e7e7",
" 9 c #c9c9c9",
" 0 c #9c9c9c",
" q c #747474",
" w c #545454",
" e c #ececec",
" r c #cacaca",
" t c #a1a1a1",
" y c #444444",
" u c #3a3a3a",
" i c #f9f9f9",
" p c #fbfbfb",
" a c #fefefe",
" s c #f1f1f1",
" d c #d2d2d2",
" f c #7f7f7f",
" g c #6c6c6c",
" h c #636363",
" j c #646464",
" k c #5d5d5d",
" l c #484848",
" z c #393939",
" x c #f3f3f3",
" c c #f2f2f2",
" v c #fcfcfc",
" b c #e0e0e0",
" n c #b4b4b4",
" m c #757575",
" M c #606060",
" N c #878787",
" B c #7c7c7c",
" V c #5a5a5a",
" C c #434343",
" Z c #b1b1b1",
" A c #b0b0b0",
" S c #d5d5d5",
" D c #e2e2e2",
" F c #d8d8d8",
" G c #909090",
" H c #6e6e6e",
" J c #707070",
" K c #afafaf",
" L c #aeaeae",
" P c #959595",
" I c #555555",
" U c #737373",
" Y c #9b9b9b",
" T c #b8b8b8",
" R c #d0d0d0",
" E c #6a6a6a",
" W c #777777",
" Q c #e1e1e1",
" ! c #e9e9e9",
" ~ c #dddddd",
" ^ c #525252",
" / c #969696",
" ( c #a8a8a8",
" ) c #949494",
" _ c #686868",
" ` c #bcbcbc",
" ' c #f7f7f7",
" ] c #787878",
" [ c #6b6b6b",
" { c #bfbfbf",
" } c #595959",
" | c #848484",
".  c #aaaaaa",
".. c #dbdbdb",
".X c #383838",
".o c #3f3f3f",
".O c #5b5b5b",
".+ c #d4d4d4",
".@ c #eeeeee",
".# c #c5c5c5",
".$ c #3e3e3e",
".% c #4a4a4a",
".& c #b2b2b2",
".* c #d7d7d7",
".= c #efefef",
".- c #575757",
".; c #5e5e5e",
".: c #4b4b4b",
".> c #6d6d6d",
"., c #727272",
".< c #6f6f6f",
".1 c #898989",
".2 c #c1c1c1",
".3 c #e4e4e4",
".4 c #7b7b7b",
".5 c #939393",
".6 c #a2a2a2",
".7 c #8f8f8f",
".8 c #bbbbbb",
".9 c #4f4f4f",
".0 c #b3b3b3",
".q c #cccccc",
".w c #666666",
".e c #eaeaea",
".r c #ababab",
".t c #d9d9d9",
".y c #8d8d8d",
".u c #999999",
".i c #9a9a9a",
".p c #f0f0f0",
".a c #dfdfdf",
".s c #767676",
".d c #7e7e7e",
".f c #f8f8f8",
".g c #fdfdfd",
".h c #9f9f9f",
".j c #7d7d7d",
".k c #656565",
".l c #5f5f5f",
".z c #494949",
".x c #c8c8c8",
".c c #9e9e9e",
".v c #515151",
".b c #454545",
".n c #e5e5e5",
".m c #c6c6c6",
".M c #c2c2c2",
".N c #3b3b3b",
".B c #363636",
".V c #bdbdbd",
".C c #565656",
".Z c #414141",
".A c #a5a5a5",
".S c #343434",
/* pixels */
"                                       . X o O + + + + + + + + +",
"                                       @ # $ % + + + + + + + + +",
"                                       & * = - + + + + + + + + +",
"                                   ; & : > , < + + + + + + + + +",
"                                   1 2 3 4 5 6 + + + + + + + + +",
"                               7 8 9 0 q w 5 6 + + + + + + + + +",
"                               e r t = O - y u + + + + + + + + +",
" i i i i i i i i i p a     i s d t f g h j k l z z z z z z z z z",
" x x x c s s s s s 7 v     x b n m M m o N B V C C C C C C C C C",
" Z Z Z Z A A A A A : S D e F n G H J 3 K n L P o o o o o o o o o",
" I I I I I I I I I U Y T R X B E W P 2 Q 8 ! D ~ ~ ~ ~ ~ ~ ~ ~ ~",
" + + + + + + + + + ^ B / ( ) _ g P ` b ' v                      ",
" + + + + + + + + + - H ] ] U [ N { & x v a                      ",
" + + + + + + + + + C } M M H |. .. ' v                          ",
" + + + + + + + + +.X.o -.O f A.+.@ v a                          ",
" + + + + + + + + + + + < , N.# ! '                              ",
" + + + + + + + + + + + < , N.# ! '                              ",
" + + + + + + + + + 6.$.% V f.&.*.= v a                          ",
" + + + + + + + + + <.-.;.; H N # ~ ' v                          ",
" + + + + + + + + +.:.> m.,.< [.1.2.3 x v a                      ",
" + + + + + + + + + ^.4.5.6.7 _.> P.8 b ' v                      ",
".9.9.9.9.9.9.9.9.9.> /.0.q Z ].w q ).#.3.e e @ D D D D D D D D D",
".r.r. . . . . . .  T 9.t 8 S A.y.> =.u.& T.&.i.1.1.1.1.1.1.1.1.1",
" c s.p.p.p.p.p.p.p s c 7 v c.a.&.,.;.s >.1.d.O C C C C C C C C C",
" i i.f.f.f.f.f.f.f.f i p.g i.p R.h.j.>.k.w.l.z u u u u u u u u u",
"                               1.x.c H.v -.b u + + + + + + + + +",
"                               ;.n.m.u., O.$ 6 + + + + + + + + +",
"                                  .e.M ).;.N.B + + + + + + + + +",
"                                   ; Q.V o.C.Z + + + + + + + + +",
"                                       &.A J - + + + + + + + + +",
"                                       @ # $.9 + + + + + + +.S.B",
"                                       . X o O + + + + + + +.B z"
};
