/* XPM */
static char *freeimage[] = {
/* width height num_colors chars_per_pixel */
"32 32 6 1",
/* colors */
"  c #ffffff",
". c #c0c0c0",
"X c #808080",
"o c #000000",
"O c #008080",
"+ c #800000",
/* pixels */
"                    .XXoXoO+oO+O",
"                    XXO+oO+oO+O+",
"                   ..X+O+O+O+O+o",
"                  ..XXO+Oo+OoXoO",
"                  .XXo+O+oXo+oO+",
"                 ..XXoXooXoO+O+o",
"                .XXoXoXoXoO+oO+O",
"               .XXXXXoXoO+O+O+O+",
"   .  .       ..XOXXXXXoX+O+O+O+",
".X......X..  ..XXXX...XXXXXXXXXX",
"XOX+OX+OXXX...XXXX.. . ... .. ..",
"O+oO+oXo++XXXXXXX.              ",
"o+O+O+OoXOXXXX+X. .             ",
"oXOo+Oo+O+OXXXX..               ",
"O+o+Oo+O+oXoXX..                ",
"o+OoXoXoO+O+OX. .               ",
"oXoXo+OoXoO+XX.                 ",
"O+Oo+OoXo+O+OX..                ",
"o+O+O+o+oO+OX+XX                ",
"oXooXoO+OXXXXXXX..              ",
"oXoXoO+oO+XX.XXXX..             ",
"XoXoX+OX+XX...XXXX.       . .  .",
".X..X..X.......XXXXX.XXXXXXXXXXX",
"  .  .  .     ..XXXXXXXoXoXoX+O+",
"               .XXXXOX+O+O+OO+O+",
"                ..XoX+Oo+OXo+oO+",
"                ...XXoO+Ooo+OO+o",
"                  .XXoXo+O+O+o+O",
"                  ..XXo+O+O+oXOo",
"                    XXXoOoXoO+o+",
"                   ..XoXo+Oo+OoO",
"                    .XXo+Oo+O+O+"
};
