/* XPM */
static char *freeimage[] = {
/* width height num_colors chars_per_pixel */
"32 32 26 1",
/* colors */
"  c #ffffff",
". c #e9e9e9",
"X c #b4b4b4",
"o c #838383",
"O c #525252",
"+ c #333333",
"@ c #e5e5e5",
"# c #adadad",
"$ c #797979",
"% c #a5a5a5",
"& c #6d6d6d",
"* c #4d4d4d",
"= c #f6f6f6",
"- c #b8b8b8",
"; c #606060",
": c #444444",
"> c #c0c0c0",
", c #9d9d9d",
"< c #656565",
"1 c #393939",
"2 c #717171",
"3 c #c9c9c9",
"4 c #d5d5d5",
"5 c #d9d9d9",
"6 c #898989",
"7 c #959595",
/* pixels */
"                   .XoO+++++++++",
"                   @#$O+++++++++",
"                   @%&*+++++++++",
"                 =@-o;:+++++++++",
"                 .>,<11+++++++++",
"               =@>%2O11+++++++++",
"               .3%&O*:1+++++++++",
"=== == = =    =4,o&<<;:111111111",
"====.==.==   =5X2<2o6$;:::::::::",
"XXXXXXXXX>4@.4X7&27#X#7oooooo6oo",
"OOOOOOOOO2,X4X$&27>@@@@555555555",
"+++++++++O$,%7&&7-@=            ",
"+++++++++*&2$2&o>@.             ",
"+++++++++:;;;2o#5=              ",
"+++++++++11O;$X4.               ",
"+++++++++++1O6>.                ",
"+++++++++++:;o>.=               ",
"++++++++++:*OoX5==              ",
"+++++++++:O<;&o#5               ",
"+++++++++*&222&6>@=             ",
"+++++++++O$7%6&&7-@             ",
"*********&7X3X$<27>@...@@@@@@@@@",
"#######%#X35@4#6&2,X-X7o66666666",
"=.=..=.=.=.= .@X&;2o6$;:::::::::",
" = = = = =   ==3%$&<<<*111111111",
"               .3%&O*:1+++++++++",
"               =@>,2O:++++++++++",
"                 .>7;1++++++++++",
"                 =@-oO:+++++++++",
"                   @%2*+++++++++",
"                   @#$*+++++++++",
"                   .XoO++++++++1"
};
