/* XPM */
static char *freeimage[] = {
/* width height num_colors chars_per_pixel */
"16 16 5 1",
/* colors */
"  c #ffffff",
". c #808080",
"X c #00ffff",
"o c #008080",
"O c #000000",
/* pixels */
"                ",
"                ",
"        .       ",
"       .X.      ",
"      .XoX.     ",
"     .XoXoXO    ",
"    .XoXoXOO    ",
"    ..XoXO.O    ",
"    .X.XO..O    ",
"    .XXO..O     ",
"     .XO.O      ",
"      .OO       ",
"       O        ",
"                ",
"                ",
"                "
};
